# xmcd
#
# Track frame offsets: 
#        150
#        2541
#        15944
#        38169
#        63440
#        79222
#        99610
#        129077
#        145397
#        160852
#        189313
#        191519
#        206322
#
# Disc length: 2757 seconds
#
# Revision: 1
# Processed by: cddbd v1.5.2PL0 Copyright (c) Steve Scherf et al.
# Submitted via: ExactAudioCopy v0.99pb5
#
DISCID=9a0ac30d
DTITLE=Беловодье - На снегу
DYEAR=2004
DGENRE=Folk/Rock
TTITLE0=На снегу
TTITLE1=Куполами
TTITLE2=Зима
TTITLE3=Без царя
TTITLE4=Далёкая
TTITLE5=Не догнать
TTITLE6=По земле
TTITLE7=Мне бы только
TTITLE8=В белые края
TTITLE9=Никого
TTITLE10=Ожидая весны
TTITLE11=Дорога
TTITLE12=Эпилог
EXTD=
EXTT0=
EXTT1=
EXTT2=
EXTT3=
EXTT4=
EXTT5=
EXTT6=
EXTT7=
EXTT8=
EXTT9=
EXTT10=
EXTT11=
EXTT12=
PLAYORDER=
